<?xml version="1.0" encoding="UTF-8" standalone="no"?>
<svg
   xmlns:dc="http://purl.org/dc/elements/1.1/"
   xmlns:cc="http://creativecommons.org/ns#"
   xmlns:rdf="http://www.w3.org/1999/02/22-rdf-syntax-ns#"
   xmlns:svg="http://www.w3.org/2000/svg"
   xmlns="http://www.w3.org/2000/svg"
   xmlns:sodipodi="http://sodipodi.sourceforge.net/DTD/sodipodi-0.dtd"
   xmlns:inkscape="http://www.inkscape.org/namespaces/inkscape"
   width="509.45016"
   height="168.62032"
   viewBox="0 0 134.79202 44.614124"
   version="1.1"
   id="svg1058"
   inkscape:version="1.0.2 (e86c870879, 2021-01-15)"
   sodipodi:docname="tosw-logo-lightbg.svg">
  <defs
     id="defs1052" />
  <sodipodi:namedview
     id="base"
     pagecolor="#ffffff"
     bordercolor="#666666"
     borderopacity="1.0"
     inkscape:pageopacity="0"
     inkscape:pageshadow="2"
     inkscape:zoom="2.8284271"
     inkscape:cx="354.06838"
     inkscape:cy="71.980553"
     inkscape:document-units="mm"
     inkscape:current-layer="layer1"
     inkscape:document-rotation="0"
     showgrid="false"
     fit-margin-top="5"
     lock-margins="true"
     fit-margin-left="5"
     fit-margin-right="5"
     fit-margin-bottom="5"
     units="px"
     inkscape:pagecheckerboard="false"
     inkscape:window-width="1920"
     inkscape:window-height="1016"
     inkscape:window-x="0"
     inkscape:window-y="0"
     inkscape:window-maximized="1" />
  <metadata
     id="metadata1055">
    <rdf:RDF>
      <cc:Work
         rdf:about="">
        <dc:format>image/svg+xml</dc:format>
        <dc:type
           rdf:resource="http://purl.org/dc/dcmitype/StillImage" />
        <dc:title />
      </cc:Work>
    </rdf:RDF>
  </metadata>
  <g
     inkscape:label="Layer 1"
     inkscape:groupmode="layer"
     id="layer1"
     transform="translate(-75.478986,-104.69294)">
    <g
       id="g2725">
      <path
         id="path2203"
         style="color:#000000;font-style:normal;font-variant:normal;font-weight:normal;font-stretch:normal;font-size:medium;line-height:normal;font-family:sans-serif;font-variant-ligatures:normal;font-variant-position:normal;font-variant-caps:normal;font-variant-numeric:normal;font-variant-alternates:normal;font-variant-east-asian:normal;font-feature-settings:normal;font-variation-settings:normal;text-indent:0;text-align:start;text-decoration:none;text-decoration-line:none;text-decoration-style:solid;text-decoration-color:#000000;letter-spacing:normal;word-spacing:normal;text-transform:none;writing-mode:lr-tb;direction:ltr;text-orientation:mixed;dominant-baseline:auto;baseline-shift:baseline;text-anchor:start;white-space:normal;shape-padding:0;shape-margin:0;inline-size:0;clip-rule:nonzero;display:inline;overflow:visible;visibility:visible;isolation:auto;mix-blend-mode:normal;color-interpolation:sRGB;color-interpolation-filters:linearRGB;solid-color:#000000;solid-opacity:1;vector-effect:none;fill:#decd87;fill-opacity:1;fill-rule:nonzero;stroke:none;stroke-width:2.83465;stroke-linecap:butt;stroke-linejoin:miter;stroke-miterlimit:4;stroke-dasharray:none;stroke-dashoffset:0.148135;stroke-opacity:1;color-rendering:auto;image-rendering:auto;shape-rendering:auto;text-rendering:auto;enable-background:accumulate;stop-color:#000000"
         d="M 25.199219 18.896484 L 25.199219 18.898438 C 21.733785 18.898438 18.896484 21.737676 18.896484 25.203125 C 18.896484 28.668536 21.733785 31.507812 25.199219 31.507812 C 28.179633 31.507812 30.697843 29.405672 31.345703 26.613281 C 32.017182 26.613432 44.543892 26.616318 49.064453 26.617188 C 49.711833 29.407462 52.22029 31.507812 55.199219 31.507812 C 58.176836 31.507812 60.69298 29.409554 61.34375 26.621094 C 67.81305 26.622568 70.825676 26.623224 79.066406 26.625 C 79.716682 29.411381 82.223086 31.507812 85.199219 31.507812 C 88.174697 31.507812 90.688808 29.412427 91.341797 26.626953 C 100.09037 26.628956 100.62574 26.629045 109.06641 26.630859 C 109.71871 29.414481 112.22507 31.507812 115.19922 31.507812 C 118.17257 31.507812 120.68466 29.415263 121.33984 26.632812 C 128.8489 26.634551 133.94808 26.635698 139.06836 26.636719 C 139.72286 29.417317 142.22723 31.507812 145.19922 31.507812 C 148.16978 31.507812 150.6798 29.419145 151.33789 26.640625 C 153.02326 26.641003 162.12236 26.642578 162.21484 26.642578 C 174.58539 26.642578 182.17509 30.186697 187.51953 35.470703 C 192.86397 40.754747 195.96397 47.931292 198.78516 55.285156 C 201.60623 62.639059 204.12733 70.148856 208.67773 75.960938 C 210.90346 78.803709 213.65137 81.201899 217.09766 82.914062 L 168.51953 82.935547 C 167.86752 80.151396 165.35959 78.058594 162.38477 78.058594 C 159.40861 78.058594 156.90068 80.153488 156.25 82.939453 L 138.56836 82.947266 C 137.97535 80.08314 135.41636 77.910156 132.38477 77.910156 C 129.35117 77.910156 126.79836 80.08624 126.20898 82.953125 L 108.57031 82.960938 C 107.98252 80.090197 105.42112 77.910156 102.38477 77.910156 C 99.347084 77.910156 96.791913 80.092252 96.207031 82.964844 L 78.572266 82.972656 C 77.988971 80.096209 75.425188 77.910156 72.384766 77.910156 C 69.342359 77.910156 66.784688 80.099234 66.205078 82.978516 L 48.574219 82.986328 C 47.996212 80.103229 45.429923 77.910156 42.384766 77.910156 C 38.919321 77.910156 36.080078 80.749395 36.080078 84.214844 C 36.080078 87.680293 38.919321 90.517578 42.384766 90.517578 C 45.294405 90.517578 47.761833 88.515066 48.480469 85.822266 L 66.294922 85.814453 C 67.009105 88.511146 69.472326 90.517578 72.384766 90.517578 C 75.299352 90.517578 77.770494 88.508272 78.484375 85.808594 L 96.291016 85.800781 C 97.000471 88.504391 99.467386 90.517578 102.38477 90.517578 C 105.30411 90.517578 107.77706 88.50129 108.48633 85.794922 L 126.28906 85.787109 C 126.99387 88.497409 129.46259 90.517578 132.38477 90.517578 C 135.30842 90.517578 137.78516 88.495581 138.49023 85.783203 L 156.24805 85.775391 C 156.89582 88.565702 159.40582 90.666016 162.38477 90.666016 C 165.36583 90.666016 167.87786 88.562829 168.52344 85.769531 L 230.40234 85.744141 L 344.51367 85.695312 C 341.06111 87.407854 338.3086 89.807821 336.08008 92.654297 C 331.52972 98.466341 329.00279 105.97625 326.18164 113.33008 C 323.36049 120.68402 320.26827 127.85857 314.92383 133.14258 C 309.57942 138.42658 301.98184 141.96484 289.61133 141.96484 C 289.5433 141.96484 280.77994 141.96657 279.60156 141.9668 C 278.93841 139.19561 276.4324 137.11523 273.4668 137.11523 C 270.49975 137.11523 267.99945 139.1974 267.33984 141.9707 C 263.18569 141.97165 256.07664 141.97325 249.60352 141.97461 C 248.94319 139.19949 246.4352 137.11523 243.4668 137.11523 C 240.4976 137.11523 237.99526 139.20027 237.33789 141.97656 C 229.72596 141.9783 228.19637 141.97862 219.60547 141.98047 C 218.94738 139.20236 216.43735 137.11523 213.4668 137.11523 C 210.4948 137.11523 207.99044 139.20419 207.33594 141.98438 C 198.53289 141.98642 198.05062 141.9865 189.60742 141.98828 C 188.9522 139.20625 186.44015 137.11523 183.4668 137.11523 C 180.49201 137.11523 177.98561 139.20807 177.33398 141.99219 C 169.60496 141.99396 165.6409 141.99485 159.60938 141.99609 C 158.95703 139.21013 156.44295 137.11523 153.4668 137.11523 C 150.48985 137.11523 147.98143 139.21095 147.33203 141.99805 C 142.9406 141.99907 130.96878 142.0018 129.61133 142.00195 C 128.96125 139.21296 126.4451 137.11523 123.4668 137.11523 C 120.00139 137.11523 117.16406 139.95256 117.16406 143.41797 C 117.16406 146.88342 120.00139 149.7207 123.4668 149.7207 C 126.44442 149.7207 128.96057 147.6244 129.61133 144.83594 C 130.97426 144.83567 142.93633 144.8329 147.33203 144.83203 C 147.97939 147.62234 150.48789 149.72266 153.4668 149.72266 C 156.44658 149.72266 158.96471 147.62156 159.61328 144.83008 C 165.64605 144.82872 169.60253 144.8278 177.33008 144.82617 C 177.97524 147.61947 180.48577 149.72266 183.4668 149.72266 C 186.44937 149.72266 188.96962 147.61768 189.61523 144.82227 C 198.05265 144.82034 198.53282 144.82025 207.32812 144.81836 C 207.97038 147.61559 210.48297 149.72266 213.4668 149.72266 C 216.45217 149.72266 218.97448 147.61376 219.61719 144.81445 C 228.19547 144.81249 229.72562 144.81213 237.32617 144.81055 C 237.96552 147.61171 240.48014 149.72266 243.4668 149.72266 C 246.45414 149.72266 248.97656 147.61066 249.61719 144.80859 C 256.075 144.80712 263.17902 144.80548 267.32422 144.80469 C 267.9613 147.60887 270.47802 149.72266 273.4668 149.72266 C 276.45693 149.72266 278.98142 147.60678 279.61914 144.80078 C 280.79053 144.80052 289.54689 144.79883 289.61133 144.79883 C 302.5338 144.79883 311.05543 140.95449 316.91797 135.1582 C 322.78055 129.36196 325.98559 121.76939 328.83203 114.34961 C 331.67847 106.92979 334.18599 99.664692 338.31055 94.396484 C 342.43518 89.128277 348.03717 85.707031 357.80664 85.707031 L 357.80664 85.6875 L 388.11914 85.671875 C 388.78475 88.439169 391.28719 90.515625 394.25 90.515625 C 397.21428 90.515625 399.7141 88.437342 400.37695 85.667969 L 418.11523 85.662109 C 418.77642 88.435413 421.28292 90.517578 424.25 90.517578 C 427.2192 90.517578 429.72303 88.43254 430.38086 85.65625 L 448.11133 85.648438 C 448.76749 88.428658 451.27797 90.517578 454.25 90.517578 C 457.224 90.517578 459.72994 88.425558 460.38281 85.642578 L 478.10938 85.634766 C 478.76059 88.421676 481.27321 90.517578 484.25 90.517578 C 487.71541 90.517578 490.55469 87.680293 490.55469 84.214844 C 490.55469 80.749395 487.71541 77.910156 484.25 77.910156 C 481.27109 77.910156 478.7564 80.010469 478.10742 82.800781 L 460.38867 82.808594 C 459.74381 80.014351 457.23171 77.910156 454.25 77.910156 C 451.26614 77.910156 448.74736 80.017225 448.10352 82.814453 L 430.39258 82.822266 C 429.75282 80.021144 427.23666 77.910156 424.25 77.910156 C 421.26119 77.910156 418.73831 80.02398 418.09961 82.828125 L 400.39648 82.833984 C 399.76194 80.025909 397.24161 77.908203 394.25 77.908203 C 391.25692 77.908203 388.72987 80.027736 388.0957 82.837891 L 230.40234 82.90625 L 230.38281 82.90625 C 220.62574 82.90247 215.03583 79.481414 210.91406 74.216797 C 206.78943 68.948589 204.27417 61.683451 201.42773 54.263672 C 198.5813 46.843892 195.37621 39.251324 189.51367 33.455078 C 183.65117 27.658832 175.13731 23.806641 162.21484 23.806641 C 162.12716 23.806641 153.02768 23.805065 151.34961 23.804688 C 150.7069 21.00538 148.18459 18.896484 145.19922 18.896484 C 142.21536 18.896484 139.7028 21.003553 139.06055 23.800781 C 133.94843 23.79961 128.84647 23.800416 121.34766 23.798828 C 120.70204 21.003414 118.18176 18.898438 115.19922 18.898438 C 112.21751 18.898438 109.70695 21.002632 109.0625 23.796875 C 100.62678 23.794947 100.09109 23.792842 91.345703 23.789062 C 90.697159 20.997617 88.178976 18.896484 85.199219 18.896484 C 82.22029 18.896484 79.711833 20.996798 79.064453 23.787109 C 70.82277 23.78522 67.816285 23.784564 61.34375 23.783203 C 60.69298 20.994743 58.176836 18.896484 55.199219 18.896484 C 52.22309 18.896484 49.716682 20.992916 49.066406 23.779297 C 44.538717 23.778276 32.019674 23.775391 31.341797 23.775391 C 30.688128 20.990861 28.17404 18.896484 25.199219 18.896484 z M 25.199219 21.734375 C 27.1327 21.734375 28.677734 23.269632 28.677734 25.203125 C 28.677734 27.13658 27.1327 28.673828 25.199219 28.673828 C 23.265741 28.673828 21.730469 27.13658 21.730469 25.203125 C 21.730469 23.269632 23.265741 21.734375 25.199219 21.734375 z M 55.199219 21.734375 C 57.1327 21.734375 58.677734 23.269632 58.677734 25.203125 C 58.677734 27.13658 57.1327 28.673828 55.199219 28.673828 C 53.265741 28.673828 51.730469 27.13658 51.730469 25.203125 C 51.730469 23.269632 53.265741 21.734375 55.199219 21.734375 z M 85.199219 21.734375 C 87.1327 21.734375 88.677734 23.269632 88.677734 25.203125 C 88.677734 27.13658 87.1327 28.673828 85.199219 28.673828 C 83.265741 28.673828 81.730469 27.13658 81.730469 25.203125 C 81.730469 23.269632 83.265741 21.734375 85.199219 21.734375 z M 115.19922 21.734375 C 117.13271 21.734375 118.67773 23.269632 118.67773 25.203125 C 118.67773 27.13658 117.13271 28.673828 115.19922 28.673828 C 113.26576 28.673828 111.73047 27.13658 111.73047 25.203125 C 111.73047 23.269632 113.26576 21.734375 115.19922 21.734375 z M 145.19922 21.734375 C 147.13271 21.734375 148.67773 23.269632 148.67773 25.203125 C 148.67773 27.13658 147.13271 28.673828 145.19922 28.673828 C 143.26576 28.673828 141.73047 27.13658 141.73047 25.203125 C 141.73047 23.269632 143.26576 21.734375 145.19922 21.734375 z M 42.384766 80.744141 C 44.318243 80.744141 45.861328 82.281351 45.861328 84.214844 C 45.861328 86.148337 44.318243 87.683594 42.384766 87.683594 C 40.451284 87.683594 38.916016 86.148337 38.916016 84.214844 C 38.916016 82.281351 40.451284 80.744141 42.384766 80.744141 z M 72.384766 80.744141 C 74.318247 80.744141 75.861328 82.281351 75.861328 84.214844 C 75.861328 86.148337 74.318247 87.683594 72.384766 87.683594 C 70.451288 87.683594 68.916016 86.148337 68.916016 84.214844 C 68.916016 82.281351 70.451288 80.744141 72.384766 80.744141 z M 102.38477 80.744141 C 104.31826 80.744141 105.86133 82.281351 105.86133 84.214844 C 105.86133 86.148337 104.31826 87.683594 102.38477 87.683594 C 100.45127 87.683594 98.916016 86.148337 98.916016 84.214844 C 98.916016 82.281351 100.45127 80.744141 102.38477 80.744141 z M 132.38477 80.744141 C 134.31826 80.744141 135.86133 82.281351 135.86133 84.214844 C 135.86133 86.148337 134.31826 87.683594 132.38477 87.683594 C 130.45127 87.683594 128.91602 86.148337 128.91602 84.214844 C 128.91602 82.281351 130.45127 80.744141 132.38477 80.744141 z M 394.25 80.744141 C 396.18349 80.744141 397.71875 82.281351 397.71875 84.214844 C 397.71875 86.148337 396.18349 87.683594 394.25 87.683594 C 392.31651 87.683594 390.77344 86.148337 390.77344 84.214844 C 390.77344 82.281351 392.31651 80.744141 394.25 80.744141 z M 424.25 80.744141 C 426.18349 80.744141 427.71875 82.281351 427.71875 84.214844 C 427.71875 86.148337 426.18349 87.683594 424.25 87.683594 C 422.31651 87.683594 420.77344 86.148337 420.77344 84.214844 C 420.77344 82.281351 422.31651 80.744141 424.25 80.744141 z M 454.25 80.744141 C 456.18346 80.744141 457.71875 82.281351 457.71875 84.214844 C 457.71875 86.148337 456.18346 87.683594 454.25 87.683594 C 452.31651 87.683594 450.77344 86.148337 450.77344 84.214844 C 450.77344 82.281351 452.31651 80.744141 454.25 80.744141 z M 484.25 80.744141 C 486.18346 80.744141 487.71875 82.281351 487.71875 84.214844 C 487.71875 86.148337 486.18346 87.683594 484.25 87.683594 C 482.31651 87.683594 480.77344 86.148337 480.77344 84.214844 C 480.77344 82.281351 482.31651 80.744141 484.25 80.744141 z M 162.38477 80.892578 C 164.31826 80.892578 165.85547 82.427873 165.85547 84.361328 C 165.85547 86.294821 164.31826 87.832031 162.38477 87.832031 C 160.45127 87.832031 158.91602 86.294821 158.91602 84.361328 C 158.91602 82.427873 160.45127 80.892578 162.38477 80.892578 z M 123.4668 139.94727 C 125.40029 139.94727 126.94531 141.48256 126.94531 143.41602 C 126.94531 145.34951 125.40029 146.88672 123.4668 146.88672 C 121.53334 146.88672 119.99805 145.34951 119.99805 143.41602 C 119.99805 141.48256 121.53334 139.94727 123.4668 139.94727 z M 153.4668 139.94727 C 155.40029 139.94727 156.94531 141.48256 156.94531 143.41602 C 156.94531 145.34951 155.40029 146.88672 153.4668 146.88672 C 151.53334 146.88672 149.99805 145.34951 149.99805 143.41602 C 149.99805 141.48256 151.53334 139.94727 153.4668 139.94727 z M 183.4668 139.94727 C 185.40029 139.94727 186.94531 141.48256 186.94531 143.41602 C 186.94531 145.34951 185.40029 146.88672 183.4668 146.88672 C 181.53334 146.88672 179.99805 145.34951 179.99805 143.41602 C 179.99805 141.48256 181.53334 139.94727 183.4668 139.94727 z M 213.4668 139.94727 C 215.40029 139.94727 216.94531 141.48256 216.94531 143.41602 C 216.94531 145.34951 215.40029 146.88672 213.4668 146.88672 C 211.53334 146.88672 209.99805 145.34951 209.99805 143.41602 C 209.99805 141.48256 211.53334 139.94727 213.4668 139.94727 z M 243.4668 139.94727 C 245.40029 139.94727 246.94531 141.48256 246.94531 143.41602 C 246.94531 145.34951 245.40029 146.88672 243.4668 146.88672 C 241.53334 146.88672 239.99805 145.34951 239.99805 143.41602 C 239.99805 141.48256 241.53334 139.94727 243.4668 139.94727 z M 273.4668 139.94727 C 275.40029 139.94727 276.94531 141.48256 276.94531 143.41602 C 276.94531 145.34951 275.40029 146.88672 273.4668 146.88672 C 271.53334 146.88672 269.99805 145.34951 269.99805 143.41602 C 269.99805 141.48256 271.53334 139.94727 273.4668 139.94727 z "
         transform="matrix(0.26458333,0,0,0.26458333,75.478986,104.69294)" />
      <path
         d="m 104.08419,137.43543 q 0.0291,-0.47317 0.19267,-0.71855 0.16937,-0.25121 0.58997,-0.25127 0.26287,-4e-5 0.44982,0.15181 0.18695,0.14601 0.18699,0.40889 2e-5,0.15188 -0.0292,0.30377 -0.0292,0.15188 -0.0175,0.31545 0.0234,0.19861 0.1753,0.36215 0.15191,0.16354 0.38559,0.28618 0.23368,0.1168 0.53162,0.18685 0.29793,0.0643 0.60753,0.0642 0.31545,-5e-5 0.62505,-0.0527 0.31543,-0.0584 0.5666,-0.21039 0.25701,-0.15192 0.41469,-0.41481 0.15769,-0.2629 0.15763,-0.68349 -5e-5,-0.27456 -0.13444,-0.51404 -0.13439,-0.24533 -0.34472,-0.44391 -0.21033,-0.20443 -0.46738,-0.36795 -0.25121,-0.16354 -0.48489,-0.28617 -0.333,-0.16936 -0.68352,-0.32703 -0.34468,-0.16352 -0.67768,-0.33872 -0.32715,-0.18104 -0.6251,-0.39129 -0.29212,-0.2161 -0.51414,-0.5023 -0.22202,-0.28621 -0.35059,-0.66005 -0.12857,-0.37969 -0.12865,-0.87622 -8e-5,-0.55495 0.23353,-0.95806 0.23944,-0.4031 0.62495,-0.66604 0.38551,-0.26293 0.88202,-0.38567 0.50236,-0.12859 1.02811,-0.12867 0.46732,-7e-5 0.90546,0.0817 0.43813,0.0817 0.78281,0.2686 0.34468,0.18104 0.57255,0.49061 0.22787,0.30373 0.27467,0.74769 0.0117,0.16356 -0.0409,0.29208 -0.0525,0.12268 -0.14601,0.21032 -0.0935,0.0818 -0.21612,0.12855 -0.11683,0.0409 -0.2395,0.0409 -0.18693,3e-5 -0.31545,-0.0583 -0.12853,-0.0584 -0.21032,-0.14601 -0.0818,-0.0876 -0.12271,-0.1986 -0.0409,-0.11099 -0.0526,-0.21614 -0.0876,-0.14018 -0.22786,-0.22778 -0.14021,-0.0935 -0.31546,-0.146 -0.16942,-0.0584 -0.35635,-0.0758 -0.18694,-0.0234 -0.36219,-0.0233 -0.24534,4e-5 -0.49068,0.0527 -0.2395,0.0526 -0.4381,0.16947 -0.19859,0.11687 -0.32124,0.29796 -0.12265,0.18111 -0.12261,0.44399 5e-5,0.3096 0.14612,0.54909 0.14608,0.23948 0.36808,0.42638 0.22201,0.1869 0.49075,0.33874 0.27458,0.15184 0.53163,0.28032 0.30962,0.15768 0.64262,0.33872 0.333,0.17519 0.64848,0.38545 0.32132,0.20441 0.60759,0.44972 0.28627,0.24529 0.50246,0.54903 0.21618,0.29789 0.33891,0.65421 0.12857,0.35631 0.12863,0.78859 7e-5,0.46149 -0.12839,0.82369 -0.12847,0.3622 -0.35041,0.63678 -0.22194,0.2746 -0.51983,0.46741 -0.29789,0.19282 -0.64253,0.31555 -0.34464,0.12272 -0.71849,0.17535 -0.36801,0.0585 -0.73604,0.0585 -0.3096,5e-5 -0.66594,-0.0525 -0.35051,-0.0525 -0.69518,-0.16347 -0.34467,-0.11678 -0.66014,-0.29198 -0.30964,-0.18105 -0.54918,-0.4322 -0.2337,-0.257 -0.36811,-0.58411 -0.1344,-0.33295 -0.12278,-0.7477 z"
         style="font-style:normal;font-variant:normal;font-weight:normal;font-stretch:normal;font-size:11.9636px;line-height:0.85;font-family:'Autour One';-inkscape-font-specification:'Autour One, Normal';font-variant-ligatures:normal;font-variant-caps:normal;font-variant-numeric:normal;font-variant-east-asian:normal;letter-spacing:0px;word-spacing:0px;fill:#393c2e;fill-opacity:1;stroke:none;stroke-width:0.260404"
         id="path1975" />
      <path
         d="m 111.93495,135.01584 q -1.5e-4,-1.0398 0.2918,-1.89856 0.29779,-0.85875 0.83513,-1.47804 0.54318,-0.61929 1.30254,-0.95821 0.7652,-0.34478 1.69401,-0.34491 0.98139,-1.5e-4 1.72917,0.3444 0.75361,0.3387 1.26192,0.95784 0.51415,0.61913 0.77715,1.4778 0.263,0.85868 0.26316,1.89848 1.4e-4,0.98724 -0.28597,1.846 -0.28611,0.85291 -0.81761,1.48389 -0.53149,0.63096 -1.285,0.99326 -0.75352,0.36229 -1.68817,0.36242 -0.61921,1e-4 -1.16251,-0.16339 -0.54329,-0.16348 -0.99898,-0.46718 -0.44985,-0.3037 -0.80625,-0.72424 -0.3564,-0.42639 -0.60766,-0.94625 -0.24543,-0.51986 -0.37403,-1.12153 -0.1286,-0.60167 -0.1287,-1.26178 z m 1.33188,-1.9e-4 q 7e-5,0.43813 0.0819,0.87039 0.0818,0.42642 0.23963,0.81779 0.16362,0.38552 0.39733,0.71845 0.23956,0.3271 0.54336,0.5724 0.30964,0.23947 0.68352,0.37961 0.37972,0.1343 0.81784,0.13423 0.46149,-7e-5 0.84118,-0.13447 0.37968,-0.14026 0.68341,-0.37981 0.30372,-0.2454 0.52566,-0.57256 0.22777,-0.333 0.37375,-0.71857 0.15183,-0.39141 0.22186,-0.81786 0.0759,-0.43228 0.0758,-0.87041 -1.1e-4,-0.70099 -0.16376,-1.32602 -0.16366,-0.63086 -0.50255,-1.10982 -0.33304,-0.47896 -0.84714,-0.75929 -0.50826,-0.28032 -1.20925,-0.28022 -0.6601,1e-4 -1.17413,0.25136 -0.51402,0.25127 -0.87029,0.70696 -0.35043,0.4557 -0.53727,1.09831 -0.18099,0.63676 -0.18088,1.41953 z"
         style="font-style:normal;font-variant:normal;font-weight:normal;font-stretch:normal;font-size:11.9636px;line-height:0.85;font-family:'Autour One';-inkscape-font-specification:'Autour One, Normal';font-variant-ligatures:normal;font-variant-caps:normal;font-variant-numeric:normal;font-variant-east-asian:normal;letter-spacing:0px;word-spacing:0px;fill:#393c2e;fill-opacity:1;stroke:none;stroke-width:0.260404"
         id="path1977" />
      <path
         d="m 122.03511,135.23635 q -0.006,-0.92882 -2.7e-4,-1.86348 0.0115,-0.94049 0.0114,-1.96861 -4e-5,-0.24535 0.0233,-0.44398 0.0292,-0.19861 0.0993,-0.33882 0.0701,-0.14021 0.1869,-0.21033 0.12266,-0.0759 0.3096,-0.076 0.42643,-6e-5 0.60172,0.25111 0.17528,0.24532 0.17534,0.67176 2e-5,0.12267 -0.006,0.26287 -0.006,0.1402 -0.0116,0.33297 -0.006,0.19277 -0.0174,0.46733 -0.006,0.27456 -0.0116,0.66011 -0.006,0.38554 -0.0116,0.91129 -0.006,0.52574 -0.006,1.22673 7e-5,0.4206 0.0235,0.83535 0.0293,0.4089 0.10526,0.78276 0.0818,0.36801 0.22792,0.68343 0.14609,0.31543 0.37395,0.54906 0.23369,0.22779 0.56668,0.35625 0.33884,0.12847 0.80032,0.1284 0.53159,-8e-5 0.89958,-0.21627 0.36799,-0.2162 0.59575,-0.63098 0.2336,-0.41479 0.33282,-1.02233 0.10506,-0.61338 0.10494,-1.402 -2.1e-4,-1.41951 -0.0237,-2.4009 -0.0235,-0.98139 -0.0353,-1.41951 -0.006,-0.0876 -0.006,-0.18108 -1e-5,-0.0935 -1e-5,-0.11099 -7e-5,-0.41475 0.181,-0.5725 0.18691,-0.1636 0.49651,-0.16364 0.19862,-3e-5 0.33298,0.0584 0.14021,0.0584 0.22201,0.15184 0.0818,0.0935 0.11686,0.21029 0.0351,0.11682 0.0351,0.22781 3e-5,0.19277 -0.0175,0.39723 -0.0116,0.19862 -0.0116,0.41476 7e-5,0.46733 0.006,0.86455 0.006,0.39723 0.0176,0.75941 6e-5,0.42059 0.0118,0.85287 0.0117,0.42644 0.0118,0.92297 1.6e-4,1.06902 -0.20417,1.91024 -0.19849,0.83538 -0.61316,1.41376 -0.41467,0.57837 -1.04552,0.88223 -0.625,0.30385 -1.47204,0.30398 -0.42643,6e-5 -0.8412,-0.0817 -0.41476,-0.0758 -0.78865,-0.2686 -0.3739,-0.19272 -0.69523,-0.5198 -0.3155,-0.32708 -0.54923,-0.82358 -0.23374,-0.4965 -0.3682,-1.17995 -0.13446,-0.68344 -0.13459,-1.59473 z"
         style="font-style:normal;font-variant:normal;font-weight:normal;font-stretch:normal;font-size:11.9636px;line-height:0.85;font-family:'Autour One';-inkscape-font-specification:'Autour One, Normal';font-variant-ligatures:normal;font-variant-caps:normal;font-variant-numeric:normal;font-variant-east-asian:normal;letter-spacing:0px;word-spacing:0px;fill:#393c2e;fill-opacity:1;stroke:none;stroke-width:0.260404"
         id="path1979" />
      <path
         d="m 131.04924,138.88018 q -2e-5,-0.12852 0.0116,-0.25119 0.0117,-0.12268 0.0233,-0.22784 -1.2e-4,-0.81198 -2.2e-4,-1.49545 -1e-4,-0.68346 -1.9e-4,-1.27347 -9e-5,-0.59584 -1.6e-4,-1.11574 -8e-5,-0.5199 -1.5e-4,-1.00476 -7e-5,-0.49069 -1.4e-4,-0.95802 0.006,-0.47317 0.006,-0.96386 -0.0292,-0.0818 -0.0585,-0.22782 -0.0234,-0.14603 -0.0234,-0.27454 -2e-5,-0.12267 0.035,-0.24536 0.0409,-0.12268 0.1168,-0.21616 0.0818,-0.0993 0.19859,-0.15775 0.11682,-0.0584 0.2687,-0.0584 0.24535,-3e-5 0.49654,0.0291 0.2512,0.0292 0.56664,0.0291 0.26288,-4e-5 0.52574,-0.0235 0.26287,-0.0292 0.56079,-0.0352 0.88208,-1.3e-4 1.59479,0.17501 0.71854,0.17515 1.22097,0.54309 0.50827,0.36795 0.78291,0.94039 0.27464,0.56659 0.27476,1.35521 1.1e-4,0.74772 -0.2101,1.33191 -0.20437,0.57835 -0.53144,1.01068 -0.32122,0.43232 -0.72425,0.72446 -0.39719,0.2863 -0.77687,0.43824 0.0526,0.31544 0.16365,0.59581 0.11687,0.27455 0.29215,0.48482 0.18112,0.21026 0.42065,0.33291 0.23952,0.12263 0.53744,0.12259 0.22198,-3e-5 0.40306,-0.0702 0.18692,-0.0701 0.32125,-0.2746 0.0818,-0.11684 0.19859,-0.20449 0.11681,-0.0935 0.2979,-0.0935 0.31545,-5e-5 0.49072,0.17517 0.17528,0.17522 0.17532,0.44394 3e-5,0.25118 -0.14597,0.47903 -0.14017,0.22784 -0.40301,0.40313 -0.25701,0.16944 -0.62501,0.2688 -0.36801,0.10521 -0.81781,0.10528 -0.41476,6e-5 -0.75359,-0.12256 -0.33299,-0.11679 -0.60173,-0.31537 -0.2629,-0.20442 -0.4674,-0.46142 -0.20449,-0.26284 -0.35057,-0.54321 -0.14608,-0.28621 -0.23959,-0.5666 -0.0935,-0.28039 -0.14612,-0.52573 -0.0701,10e-6 -0.18693,3e-5 -0.11683,2e-5 -0.23951,3e-5 -0.12267,2e-5 -0.24534,4e-5 -0.11684,-0.006 -0.19278,-0.006 -0.1694,-0.006 -0.42059,-0.006 -0.24535,-0.006 -0.44981,-0.006 l 1.3e-4,0.85287 q 0.0117,0.27456 0.0702,0.53742 0.0585,0.25702 0.0585,0.53158 2e-5,0.1694 -0.0701,0.28624 -0.0642,0.11685 -0.16938,0.1928 -0.10514,0.0818 -0.22781,0.11687 -0.12266,0.0351 -0.23365,0.0351 -0.17525,3e-5 -0.3213,-0.0642 -0.14605,-0.0584 -0.25121,-0.16352 -0.10517,-0.11098 -0.16945,-0.25701 -0.0584,-0.15188 -0.0585,-0.33296 z m 1.36649,-2.9911 q 0.15189,0.006 0.35634,0.0117 0.20446,0.006 0.39139,0.0116 0.18694,0.006 0.33298,0.0117 0.14604,-2e-5 0.18693,-3e-5 0.78861,-1.1e-4 1.29096,-0.21632 0.50819,-0.21621 0.79437,-0.5726 0.28619,-0.35638 0.39127,-0.81788 0.11092,-0.4615 0.11085,-0.94636 -6e-5,-0.42643 -0.13446,-0.71849 -0.1344,-0.2979 -0.35641,-0.49065 -0.22201,-0.19273 -0.50242,-0.30368 -0.28042,-0.11095 -0.57251,-0.16348 -0.28624,-0.0526 -0.56664,-0.0642 -0.27456,-0.0117 -0.48486,-0.0116 -0.29792,4e-5 -0.60752,0.0118 -0.30376,0.006 -0.6601,0.0118 -0.0117,0.22198 -0.0175,0.40308 3e-5,0.18109 -0.006,0.35634 3e-5,0.16941 5e-5,0.3505 3e-5,0.17524 6e-5,0.39722 6e-5,0.39723 1.1e-4,0.74189 0.006,0.33881 0.0118,0.66593 0.006,0.32129 0.0118,0.64842 0.0117,0.32713 0.0293,0.68347 z m 2.73988,1.12117 q -0.006,10e-6 -0.006,0.006 z m -0.0117,0.006 h 0.006 z"
         style="font-style:normal;font-variant:normal;font-weight:normal;font-stretch:normal;font-size:11.9636px;line-height:0.85;font-family:'Autour One';-inkscape-font-specification:'Autour One, Normal';font-variant-ligatures:normal;font-variant-caps:normal;font-variant-numeric:normal;font-variant-east-asian:normal;letter-spacing:0px;word-spacing:0px;fill:#393c2e;fill-opacity:1;stroke:none;stroke-width:0.260404"
         id="path1981" />
      <path
         d="m 139.67089,135.11107 q -1.2e-4,-0.84119 0.18087,-1.51884 0.18683,-0.68349 0.50804,-1.21513 0.32121,-0.53163 0.75343,-0.91724 0.43222,-0.38561 0.93456,-0.63687 0.50234,-0.25126 1.04559,-0.36817 0.5491,-0.12277 1.09236,-0.12285 0.49654,-7e-5 0.97557,0.0934 0.47902,0.0875 0.94637,0.25105 0.14021,0.0526 0.28041,0.10511 0.14605,0.0467 0.25705,0.12263 0.11685,0.0759 0.18696,0.19274 0.0701,0.11682 0.0702,0.29791 3e-5,0.2103 -0.0701,0.35051 -0.0642,0.13437 -0.16938,0.21617 -0.10513,0.0818 -0.23364,0.11686 -0.12267,0.035 -0.2395,0.035 -0.0818,1e-5 -0.17526,-0.0234 -0.0935,-0.0292 -0.19278,-0.0701 -0.0993,-0.0409 -0.19279,-0.0935 -0.0935,-0.0584 -0.16942,-0.11096 -0.21031,-0.0876 -0.39725,-0.12846 -0.18109,-0.0467 -0.3505,-0.0642 -0.16941,-0.0234 -0.33298,-0.0233 -0.16356,-0.006 -0.32713,-0.006 -0.36802,6e-5 -0.73603,0.0877 -0.368,0.0819 -0.71263,0.26298 -0.33879,0.1753 -0.63667,0.44406 -0.29788,0.26876 -0.51981,0.64265 -0.21608,0.36805 -0.34453,0.84124 -0.1226,0.47319 -0.12252,1.05735 1.4e-4,0.96971 0.2748,1.64145 0.28049,0.66591 0.72452,1.08059 0.44986,0.41468 1.01068,0.60153 0.56082,0.18101 1.1333,0.18092 0.26287,-3e-5 0.51406,-0.0293 0.25702,-0.0351 0.47315,-0.0819 0.22198,-0.0526 0.39137,-0.11105 0.1694,-0.0643 0.25702,-0.12855 0.17522,-0.1519 0.30957,-0.22787 0.13434,-0.0818 0.30959,-0.0819 0.13436,-2e-5 0.25119,0.0292 0.12268,0.0292 0.21032,0.10511 0.0876,0.0701 0.14022,0.18691 0.0526,0.11683 0.0526,0.29208 3e-5,0.24535 -0.16934,0.44982 -0.16354,0.19864 -0.53154,0.37395 v -0.006 q -0.12266,0.0701 -0.36215,0.15778 -0.23365,0.0876 -0.53156,0.16364 -0.29207,0.0701 -0.6192,0.11693 -0.32712,0.0526 -0.64257,0.0527 -0.71851,1e-4 -1.33191,-0.16922 -0.60755,-0.17516 -1.10997,-0.47884 -0.49658,-0.30953 -0.88219,-0.73591 -0.38561,-0.42639 -0.64856,-0.93457 -0.26294,-0.50818 -0.39738,-1.08063 -0.13445,-0.5783 -0.13453,-1.18583 z"
         style="font-style:normal;font-variant:normal;font-weight:normal;font-stretch:normal;font-size:11.9636px;line-height:0.85;font-family:'Autour One';-inkscape-font-specification:'Autour One, Normal';font-variant-ligatures:normal;font-variant-caps:normal;font-variant-numeric:normal;font-variant-east-asian:normal;letter-spacing:0px;word-spacing:0px;fill:#393c2e;fill-opacity:1;stroke:none;stroke-width:0.260404"
         id="path1983" />
      <path
         d="m 148.92454,138.86586 q -2e-5,-0.0993 0.0233,-0.21031 0.0292,-0.11099 0.0584,-0.20446 l 0.0525,-0.18693 -0.13539,-6.98654 q -4e-5,-0.28624 0.0642,-0.44397 0.0701,-0.15773 0.17521,-0.23369 0.10514,-0.076 0.2395,-0.0876 0.14019,-0.0117 0.28039,-0.0117 l 3.07853,-4.6e-4 q 0.10514,-0.0117 0.23366,-0.0292 0.13435,-0.0234 0.18692,-0.0234 0.22198,-3e-5 0.35635,0.0408 0.1402,0.0409 0.21615,0.12264 0.0818,0.0759 0.10518,0.19275 0.0292,0.11683 0.0292,0.27456 3e-5,0.22198 -0.0584,0.35633 -0.0525,0.13437 -0.15185,0.21033 -0.0935,0.0701 -0.22196,0.0935 -0.12852,0.0234 -0.27456,0.0234 -0.0643,1e-5 -0.1694,2e-5 -0.10515,-0.006 -0.22199,-0.0175 -0.56663,8e-5 -0.91713,1.3e-4 -0.34465,5e-5 -0.55495,0.006 -0.20445,3e-5 -0.31544,5e-5 -0.10515,2e-5 -0.18694,3e-5 l -0.54326,8e-5 2.7e-4,1.85179 q 0.0351,-1e-5 0.0818,0.006 0.0526,-1e-5 0.15772,-3e-5 0.10515,-10e-6 0.28624,-4e-5 0.18693,-3e-5 0.49654,-7e-5 0.3096,-5e-5 0.76525,-1.2e-4 0.45564,-6e-5 1.10406,-1.6e-4 0.0643,-1e-5 0.14604,-0.006 0.0818,-0.006 0.16356,-0.0175 0.10515,-0.0117 0.24535,-0.0234 0.14019,-0.0117 0.30376,-0.0117 0.15772,-3e-5 0.2804,0.0642 0.12269,0.0643 0.20448,0.16354 0.0876,0.0935 0.12855,0.20444 0.0467,0.11098 0.0468,0.21029 5e-5,0.31545 -0.21023,0.46152 -0.20444,0.14607 -0.53157,0.14612 l -3.66852,0.007 5.2e-4,3.49912 q 0.57831,-9e-5 1.16248,0.0173 0.58416,0.0174 1.22089,0.0173 0.17525,-3e-5 0.32129,-0.0175 0.14604,-0.0175 0.28039,-0.0409 0.12267,-0.0175 0.24534,-0.0292 0.12852,-0.0175 0.2804,-0.0175 0.17525,-2e-5 0.32129,0.0292 0.15189,0.0234 0.26289,0.0935 0.111,0.0643 0.17527,0.18106 0.0643,0.11098 0.0643,0.28623 4e-5,0.25703 -0.0876,0.39724 -0.0876,0.14022 -0.23947,0.21034 -0.14603,0.0643 -0.33881,0.0819 -0.18692,0.0117 -0.39138,0.0118 l -3.9314,5.7e-4 q -0.15188,3e-5 -0.2804,-0.0351 -0.12268,-0.035 -0.21616,-0.11096 -0.0935,-0.0818 -0.14607,-0.20443 -0.0526,-0.12851 -0.0526,-0.3096 z"
         style="font-style:normal;font-variant:normal;font-weight:normal;font-stretch:normal;font-size:11.9636px;line-height:0.85;font-family:'Autour One';-inkscape-font-specification:'Autour One, Normal';font-variant-ligatures:normal;font-variant-caps:normal;font-variant-numeric:normal;font-variant-east-asian:normal;letter-spacing:0px;word-spacing:0px;fill:#393c2e;fill-opacity:1;stroke:none;stroke-width:0.260404"
         id="path1985" />
      <path
         d="m 172.11571,138.93838 q -0.22207,-0.60749 -0.46167,-1.2734 -0.23961,-0.66591 -0.4909,-1.33181 -0.24544,-0.67175 -0.49089,-1.32598 -0.2396,-0.65421 -0.46166,-1.24419 -0.21623,-0.59581 -0.40908,-1.104 -0.19285,-0.50819 -0.33894,-0.88787 -0.076,-0.19277 -0.14026,-0.39721 -0.0584,-0.20445 -0.0585,-0.38554 -9e-5,-0.63673 0.71258,-0.63683 0.0818,-2e-5 0.15773,0.0175 0.0818,0.0117 0.15773,0.0701 0.0818,0.0584 0.15191,0.16939 0.076,0.10514 0.14608,0.2979 0.45584,1.2734 0.80063,2.2489 0.3448,0.97549 0.60779,1.73486 0.26882,0.75937 0.46168,1.3435 0.1987,0.58413 0.3565,1.06896 0.16349,-0.47904 0.30947,-0.90549 0.14598,-0.42646 0.28611,-0.83539 0.14014,-0.41478 0.28612,-0.82371 0.14598,-0.41477 0.31532,-0.86461 -0.0467,-0.0876 -0.11103,-0.25116 -0.0584,-0.16356 -0.12857,-0.36216 -0.0701,-0.19861 -0.1461,-0.41474 -0.076,-0.21613 -0.15194,-0.41473 -0.0701,-0.20445 -0.13441,-0.36216 -0.0584,-0.16356 -0.10519,-0.25701 -0.10517,-0.18692 -0.18114,-0.37969 -0.076,-0.19276 -0.076,-0.34464 -6e-5,-0.3797 0.15764,-0.53745 0.1577,-0.16358 0.54325,-0.16364 0.12851,-2e-5 0.22783,0.0584 0.10515,0.0584 0.20449,0.2278 0.0993,0.16354 0.2162,0.45561 0.12272,0.29206 0.29804,0.75936 0.0409,0.0993 0.076,0.25702 0.0409,0.15771 0.0818,0.26286 0.0584,-0.12268 0.11679,-0.2921 0.0642,-0.16941 0.12262,-0.35051 0.0642,-0.18695 0.11678,-0.37388 0.0584,-0.18694 0.1051,-0.35051 0.0233,-0.11099 0.0642,-0.23368 0.0467,-0.12268 0.12265,-0.222 0.0818,-0.10516 0.20443,-0.16943 0.1285,-0.0701 0.32712,-0.0702 0.29792,-4e-5 0.47319,0.1927 0.17528,0.18691 0.17533,0.50236 2e-5,0.16356 -0.0701,0.34466 -0.0701,0.17526 -0.16352,0.35636 -0.25111,0.5141 -0.46134,0.99314 -0.21022,0.47904 -0.4146,1.00482 0.13441,0.35047 0.26297,0.70679 0.13441,0.35632 0.28052,0.77689 0.15194,0.42058 0.3331,0.93461 0.18117,0.51404 0.41493,1.17994 0.2686,-0.76529 0.51384,-1.52472 0.24523,-0.76529 0.49047,-1.52474 0.25107,-0.76528 0.50799,-1.51889 0.25692,-0.75945 0.54889,-1.51305 v 0.006 q 0.035,-0.17526 0.0876,-0.33882 0.0584,-0.16358 0.146,-0.28627 0.0876,-0.12269 0.21611,-0.19281 0.13435,-0.0759 0.32128,-0.0759 0.33297,-5e-5 0.5024,0.16933 0.17528,0.16939 0.17532,0.46731 1e-5,0.10515 -0.0117,0.19277 -0.0117,0.0876 -0.035,0.17525 -0.0175,0.0818 -0.0525,0.17526 -0.035,0.0876 -0.0817,0.19862 -0.36205,0.90551 -0.67737,1.75258 -0.30948,0.84124 -0.61896,1.70584 -0.30364,0.85876 -0.61895,1.78178 -0.31531,0.92302 -0.68317,1.98624 0.0117,0.0292 0.006,0.0467 -0.006,0.0175 -0.006,0.0467 2e-5,0.12851 -0.0525,0.24536 -0.0467,0.111 -0.14601,0.19863 -0.0935,0.0876 -0.24533,0.1344 -0.14603,0.0526 -0.34465,0.0526 -0.15772,2e-5 -0.25703,-0.0526 -0.0993,-0.0467 -0.16359,-0.12266 -0.0584,-0.0818 -0.0993,-0.18107 -0.0351,-0.0993 -0.0584,-0.1986 v 0.006 q -0.12858,-0.4089 -0.25714,-0.74185 -0.12857,-0.3388 -0.26298,-0.70096 -0.21038,-0.58413 -0.42661,-1.21498 -0.21039,-0.6367 -0.43246,-1.23252 -0.12262,0.34468 -0.2686,0.80034 -0.14597,0.45567 -0.30946,0.95807 -0.16349,0.49656 -0.33867,1.0048 -0.17517,0.50825 -0.34451,0.96392 0.0117,0.0526 0.0117,0.10514 0,0.0526 1e-5,0.0701 2e-5,0.13436 -0.0642,0.23368 -0.0584,0.0993 -0.16354,0.16359 -0.0993,0.0701 -0.23365,0.10518 -0.13435,0.0351 -0.27455,0.0351 -0.19861,3e-5 -0.3213,-0.0817 -0.12268,-0.0759 -0.19864,-0.19274 -0.0701,-0.11683 -0.10519,-0.24534 -0.0351,-0.13435 -0.0526,-0.2395 z"
         style="font-style:normal;font-variant:normal;font-weight:normal;font-stretch:normal;font-size:11.9636px;line-height:0.85;font-family:'Autour One';-inkscape-font-specification:'Autour One, Normal';font-variant-ligatures:normal;font-variant-caps:normal;font-variant-numeric:normal;font-variant-east-asian:normal;letter-spacing:0px;word-spacing:0px;fill:#393c2e;fill-opacity:1;stroke:none;stroke-width:0.260404"
         id="path1987" />
      <path
         d="m 180.81971,139.07146 q -3e-5,-0.18693 0.0525,-0.37387 0.0525,-0.19279 0.19271,-0.38558 0.0993,-0.16941 0.26864,-0.5141 0.1752,-0.34467 0.39127,-0.81203 0.21607,-0.46737 0.46134,-1.01651 0.2511,-0.55499 0.50805,-1.12751 0.25694,-0.57835 0.50805,-1.15087 0.25694,-0.57835 0.48469,-1.08076 0.22775,-0.50826 0.41462,-0.91719 0.18687,-0.40895 0.31535,-0.66015 0.0175,-0.12852 0.0701,-0.2512 0.0526,-0.12853 0.14017,-0.22785 0.0876,-0.10515 0.21027,-0.16359 0.12267,-0.0643 0.28623,-0.0643 0.2103,-4e-5 0.33882,0.0584 0.13437,0.0584 0.21617,0.16352 0.0876,0.0993 0.14023,0.23365 0.0526,0.13435 0.10519,0.28623 0.0468,0.13434 0.0877,0.25701 0.0409,0.11683 0.076,0.18108 0.39151,0.78272 0.75965,1.57712 0.37397,0.79441 0.73628,1.61801 0.36814,0.81778 0.74212,1.65891 0.37399,0.84114 0.77719,1.71148 l 0.11101,0.16354 q 0.0467,0.0643 0.11102,0.15771 0.0643,0.0876 0.11686,0.19276 0.0584,0.10514 0.0935,0.22197 0.0409,0.11682 0.0409,0.23365 6e-5,0.3505 -0.19854,0.49657 -0.19859,0.15191 -0.48483,0.15195 -0.15772,2e-5 -0.29209,-0.0526 -0.12852,-0.0467 -0.22784,-0.12848 -0.0993,-0.0876 -0.15775,-0.19859 -0.0584,-0.11683 -0.076,-0.24534 -0.16361,-0.35631 -0.30386,-0.66589 -0.14024,-0.31543 -0.27464,-0.60749 -0.12856,-0.29206 -0.25127,-0.56661 -0.12272,-0.28037 -0.24543,-0.56075 -0.0935,1e-5 -0.26288,4e-5 -0.1694,-0.006 -0.3797,-0.0174 -0.33297,5e-5 -0.67763,-0.006 -0.33881,-0.006 -0.69515,-0.006 -0.35634,-0.006 -0.73604,1.1e-4 -0.37971,5e-5 -0.79446,0.0176 -0.0643,0.006 -0.12267,0.0117 -0.0584,10e-6 -0.12267,2e-5 -0.16351,0.39725 -0.3095,0.75945 -0.14598,0.35637 -0.26277,0.66014 -0.11679,0.30378 -0.21022,0.5433 -0.0876,0.23368 -0.1343,0.37972 v -0.006 q -0.035,0.12853 -0.0817,0.25121 -0.0409,0.12267 -0.12265,0.22199 -0.0818,0.0935 -0.2278,0.15192 -0.14018,0.0643 -0.37385,0.0644 -0.31544,5e-5 -0.52577,-0.15764 -0.20448,-0.1577 -0.20452,-0.46146 z m 2.98452,-3.68065 q 0.12267,-2e-5 0.31544,-5e-5 0.19862,-3e-5 0.50822,0.006 0.31545,-5e-5 0.7711,0.006 0.45564,-7e-5 1.10406,0.006 -0.2688,-0.58412 -0.60772,-1.31427 -0.33892,-0.736 -0.80055,-1.71147 -0.13431,0.29794 -0.28614,0.6543 -0.15183,0.35635 -0.32118,0.74193 -0.16351,0.38556 -0.3387,0.79451 -0.16934,0.40893 -0.34453,0.81787 z"
         style="font-style:normal;font-variant:normal;font-weight:normal;font-stretch:normal;font-size:11.9636px;line-height:0.85;font-family:'Autour One';-inkscape-font-specification:'Autour One, Normal';font-variant-ligatures:normal;font-variant-caps:normal;font-variant-numeric:normal;font-variant-east-asian:normal;letter-spacing:0px;word-spacing:0px;fill:#393c2e;fill-opacity:1;stroke:none;stroke-width:0.260404"
         id="path1989" />
      <path
         d="m 192.6957,139.11644 q -3e-5,-0.2103 0.006,-0.37386 0.006,-0.16941 0.0116,-0.34465 0.0117,-0.18109 0.0175,-0.39723 0.0116,-0.21615 0.0116,-0.5316 0.006,-0.31545 -1.1e-4,-0.75941 -7e-5,-0.44396 -0.0118,-1.07484 -0.42654,-0.71846 -0.77712,-1.28504 -0.35058,-0.57243 -0.64858,-1.03971 -0.29799,-0.46729 -0.56092,-0.85279 -0.25708,-0.39135 -0.50248,-0.74182 -0.15192,-0.22196 -0.25125,-0.39719 -0.0993,-0.17523 -0.0994,-0.31543 -4e-5,-0.33297 0.19855,-0.50241 0.20443,-0.16944 0.53156,-0.16948 0.12851,-2e-5 0.23367,0.0759 0.111,0.076 0.19865,0.19859 0.0935,0.11682 0.16944,0.26869 0.076,0.14603 0.1344,0.29206 0.19283,0.38552 0.41486,0.74767 0.22204,0.36214 0.45576,0.71844 0.23955,0.35046 0.48495,0.71261 0.2454,0.3563 0.47912,0.73013 l 0.18698,0.30958 0.18104,-0.30964 q 0.65411,-1.01069 1.12717,-1.77601 0.47891,-0.76532 0.7125,-1.21516 h -0.006 q 0.0584,-0.15189 0.12263,-0.28626 0.0643,-0.1402 0.146,-0.23952 0.0818,-0.10516 0.18691,-0.16359 0.10514,-0.0643 0.25118,-0.0643 0.12852,-2e-5 0.25703,0.0292 0.12853,0.0234 0.22784,0.0993 0.10516,0.0759 0.16944,0.21027 0.0643,0.1285 0.0643,0.3388 10e-6,0.10515 -0.0584,0.29209 -0.0584,0.1811 -0.26865,0.37974 -0.35626,0.55501 -0.71252,1.11002 -0.35625,0.54916 -0.6833,1.06327 -0.32122,0.50826 -0.60155,0.9698 -0.28033,0.45568 -0.47889,0.82373 -0.035,0.33881 -0.0349,0.75357 0.006,0.41475 0.0235,0.8704 0.0234,0.44979 0.0469,0.91712 0.0234,0.46733 0.0235,0.90545 1e-5,0.11683 -0.035,0.22782 -0.0292,0.111 -0.10512,0.19279 -0.0759,0.0818 -0.21028,0.12855 -0.13435,0.0526 -0.33296,0.0526 -0.15773,2e-5 -0.28625,-0.0467 -0.12268,-0.0467 -0.21616,-0.12849 -0.0935,-0.0759 -0.14606,-0.18107 -0.0468,-0.10514 -0.0468,-0.22197 z"
         style="font-style:normal;font-variant:normal;font-weight:normal;font-stretch:normal;font-size:11.9636px;line-height:0.85;font-family:'Autour One';-inkscape-font-specification:'Autour One, Normal';font-variant-ligatures:normal;font-variant-caps:normal;font-variant-numeric:normal;font-variant-east-asian:normal;letter-spacing:0px;word-spacing:0px;fill:#393c2e;fill-opacity:1;stroke:none;stroke-width:0.260404"
         id="path1991" />
      <path
         d="m 100.18765,116.05733 q -0.408917,6e-5 -0.847036,0.006 -0.438119,0.006 -0.958022,0.006 -0.140198,2e-5 -0.245357,-0.0643 -0.105158,-0.0643 -0.175272,-0.16354 -0.07011,-0.10514 -0.105183,-0.23365 -0.03507,-0.12851 -0.03509,-0.25703 -5.1e-5,-0.34465 0.192703,-0.4732 0.192753,-0.13437 0.625032,-0.13444 l 4.661605,-6.8e-4 q 0.11683,-2e-5 0.2395,0.0292 0.12852,0.0292 0.22784,0.10512 0.10516,0.0759 0.16944,0.19859 0.0701,0.12266 0.0701,0.31543 2e-5,0.1402 -0.0467,0.26873 -0.0467,0.12852 -0.12848,0.222 -0.0759,0.0935 -0.18691,0.15191 -0.10514,0.0584 -0.22781,0.0584 -0.0935,1e-5 -0.1811,-0.0175 -0.0876,-0.0175 -0.18693,-0.0175 l -1.50713,2.2e-4 -0.0166,6.58933 q 2e-5,0.1402 0.0176,0.27455 0.0234,0.13436 0.0234,0.29208 2e-5,0.12851 -0.0233,0.25703 -0.0233,0.12852 -0.0993,0.23368 -0.0759,0.10516 -0.21612,0.16944 -0.14019,0.0701 -0.36801,0.0702 -0.26871,4e-5 -0.40892,-0.0934 -0.14022,-0.0876 -0.20449,-0.22779 -0.0584,-0.1402 -0.0643,-0.30959 -0.006,-0.16941 -0.006,-0.32713 z"
         style="font-style:normal;font-variant:normal;font-weight:normal;font-stretch:normal;font-size:11.9636px;line-height:0.85;font-family:'Autour One';-inkscape-font-specification:'Autour One, Normal';font-variant-ligatures:normal;font-variant-caps:normal;font-variant-numeric:normal;font-variant-east-asian:normal;letter-spacing:0px;word-spacing:0px;fill:#393c2e;fill-opacity:1;stroke:none;stroke-width:0.260404"
         id="path1994" />
      <path
         d="m 105.51626,123.33518 q -5e-5,-0.29792 0.0174,-0.59 0.0233,-0.29209 0.0233,-0.62506 -2e-5,-0.0935 -3e-5,-0.2103 -2e-5,-0.12267 -0.006,-0.35634 -4e-5,-0.2395 -0.006,-0.63672 -0.006,-0.40307 -0.0177,-1.06317 -0.006,-0.6601 -0.0178,-1.62397 -0.0118,-0.9697 -0.0296,-2.33663 -2e-5,-0.16356 -0.0468,-0.32713 -0.0409,-0.16939 -0.0409,-0.35633 -2e-5,-0.15188 0.035,-0.26872 0.0409,-0.11683 0.14017,-0.19863 0.10514,-0.0818 0.27454,-0.12272 0.1694,-0.0467 0.43227,-0.0468 0.13436,-2e-5 0.23367,0.0584 0.0993,0.0526 0.16359,0.14602 0.0701,0.0876 0.0993,0.19859 0.0351,0.11099 0.0351,0.22198 4e-5,0.26287 -0.0174,0.53743 -0.0175,0.26871 -0.0174,0.61337 l 1.9e-4,1.29099 q 0.60753,0.0174 1.16833,0.0349 0.56079,0.0174 1.16832,0.0173 0.42059,-6e-5 0.84119,-0.0293 0.42058,-0.0352 0.88207,-0.0468 -2e-5,-0.11099 -4e-5,-0.24534 0.006,-0.1402 0.006,-0.33882 -3e-5,-0.19861 -7e-5,-0.47317 -4e-5,-0.27455 -9e-5,-0.66594 -3e-5,-0.1694 -0.0351,-0.33881 -0.0351,-0.1694 -0.0351,-0.34465 -3e-5,-0.15188 0.035,-0.26872 0.0409,-0.11683 0.14016,-0.19863 0.10514,-0.0818 0.27454,-0.12272 0.17524,-0.0467 0.43812,-0.0468 0.14019,-2e-5 0.23951,0.0643 0.0993,0.0642 0.15775,0.16354 0.0643,0.0935 0.0876,0.20444 0.0292,0.10515 0.0292,0.19277 6e-5,0.44396 -0.0291,0.89377 -0.0233,0.44397 -0.0349,0.9405 6e-5,0.40307 1.2e-4,0.80614 6e-5,0.40308 1.2e-4,0.82951 0.006,0.42644 0.006,0.88793 7e-5,0.46148 1.4e-4,0.9697 9e-5,0.59 0.0118,0.99892 0.0176,0.40306 0.0352,0.68345 0.0234,0.27456 0.0468,0.44395 0.0234,0.16941 0.0409,0.28624 0.0175,0.0993 0.0292,0.19277 0.0117,0.0935 0.0117,0.19861 2e-5,0.13436 -0.035,0.24536 -0.0292,0.11099 -0.11096,0.19278 -0.0759,0.0759 -0.21028,0.12271 -0.13435,0.0467 -0.33881,0.0467 -0.23366,3e-5 -0.38555,-0.0408 -0.15189,-0.0351 -0.24536,-0.1168 -0.0876,-0.0759 -0.12855,-0.18691 -0.0351,-0.11099 -0.0351,-0.26287 -5e-5,-0.30376 0.0408,-0.60168 0.0467,-0.29794 0.0466,-0.61338 -1.2e-4,-0.76525 -0.0294,-1.54803 -0.0235,-0.78276 -0.0295,-1.68237 -0.41475,-0.006 -0.95218,1.4e-4 -0.53743,8e-5 -1.09822,0.0119 -0.55495,0.006 -1.08069,0.0236 -0.5199,0.0118 -0.91129,0.0176 0.0118,0.94049 0.0294,1.58307 0.0176,0.63673 0.0352,1.06316 0.0176,0.4206 0.0351,0.67763 0.0234,0.25119 0.041,0.41474 0.0175,0.15772 0.0234,0.30376 0.0117,0.14604 0.0117,0.35634 2e-5,0.13436 -0.0292,0.24535 -0.0292,0.10516 -0.11096,0.18695 -0.0759,0.0818 -0.21028,0.1227 -0.12851,0.0467 -0.3388,0.0468 -0.23367,3e-5 -0.37971,-0.0409 -0.14605,-0.0351 -0.23368,-0.11095 -0.0818,-0.076 -0.11102,-0.18692 -0.0292,-0.11099 -0.0292,-0.26287 z"
         style="font-style:normal;font-variant:normal;font-weight:normal;font-stretch:normal;font-size:11.9636px;line-height:0.85;font-family:'Autour One';-inkscape-font-specification:'Autour One, Normal';font-variant-ligatures:normal;font-variant-caps:normal;font-variant-numeric:normal;font-variant-east-asian:normal;letter-spacing:0px;word-spacing:0px;fill:#393c2e;fill-opacity:1;stroke:none;stroke-width:0.260404"
         id="path1996" />
      <path
         d="m 114.59991,123.10602 q -10e-6,-0.0993 0.0233,-0.2103 0.0292,-0.111 0.0584,-0.20446 l 0.0526,-0.18695 -0.13539,-6.98653 q -4e-5,-0.28624 0.0642,-0.44397 0.0701,-0.15774 0.17522,-0.23369 0.10514,-0.0759 0.23949,-0.0876 0.1402,-0.0117 0.2804,-0.0117 l 3.07852,-4.5e-4 q 0.10515,-0.0117 0.23366,-0.0292 0.13435,-0.0234 0.18693,-0.0234 0.22198,-3e-5 0.35634,0.0409 0.14021,0.0409 0.21616,0.12265 0.0818,0.0759 0.10518,0.19276 0.0292,0.11682 0.0293,0.27454 3e-5,0.22199 -0.0584,0.35635 -0.0525,0.13437 -0.15185,0.21032 -0.0935,0.0701 -0.22197,0.0935 -0.12851,0.0234 -0.27455,0.0234 -0.0643,1e-5 -0.16941,3e-5 -0.10515,-0.006 -0.22198,-0.0175 -0.56664,9e-5 -0.91713,1.4e-4 -0.34466,5e-5 -0.55495,0.006 -0.20446,3e-5 -0.31545,5e-5 -0.10515,1e-5 -0.18693,2e-5 l -0.54327,8e-5 2.7e-4,1.85179 q 0.035,0 0.0818,0.006 0.0526,-1e-5 0.15773,-2e-5 0.10515,-2e-5 0.28624,-4e-5 0.18693,-3e-5 0.49653,-8e-5 0.30961,-4e-5 0.76525,-1.1e-4 0.45565,-7e-5 1.10406,-1.6e-4 0.0643,-10e-6 0.14604,-0.006 0.0818,-0.006 0.16357,-0.0175 0.10514,-0.0117 0.24534,-0.0234 0.1402,-0.0117 0.30376,-0.0117 0.15772,-2e-5 0.28041,0.0643 0.12268,0.0643 0.20448,0.16353 0.0876,0.0935 0.12854,0.20444 0.0467,0.11098 0.0468,0.21029 5e-5,0.31544 -0.21023,0.46151 -0.20443,0.14607 -0.53156,0.14612 l -3.66852,0.007 5.1e-4,3.49912 q 0.57832,-8e-5 1.16248,0.0173 0.58416,0.0174 1.2209,0.0173 0.17525,-2e-5 0.32128,-0.0175 0.14604,-0.0175 0.28039,-0.0409 0.12268,-0.0175 0.24535,-0.0292 0.12851,-0.0175 0.28039,-0.0175 0.17525,-3e-5 0.3213,0.0292 0.15188,0.0234 0.26288,0.0935 0.111,0.0643 0.17528,0.18106 0.0643,0.11098 0.0643,0.28623 4e-5,0.25703 -0.0876,0.39725 -0.0876,0.14021 -0.23948,0.21032 -0.14603,0.0643 -0.3388,0.0818 -0.18693,0.0117 -0.39138,0.0118 l -3.9314,5.8e-4 q -0.15188,2e-5 -0.2804,-0.035 -0.12268,-0.0351 -0.21616,-0.11096 -0.0935,-0.0818 -0.14607,-0.20444 -0.0526,-0.1285 -0.0526,-0.30959 z"
         style="font-style:normal;font-variant:normal;font-weight:normal;font-stretch:normal;font-size:11.9636px;line-height:0.85;font-family:'Autour One';-inkscape-font-specification:'Autour One, Normal';font-variant-ligatures:normal;font-variant-caps:normal;font-variant-numeric:normal;font-variant-east-asian:normal;letter-spacing:0px;word-spacing:0px;fill:#393c2e;fill-opacity:1;stroke:none;stroke-width:0.260404"
         id="path1998" />
      <path
         d="m 135.47723,119.24749 q -1.5e-4,-1.0398 0.2918,-1.89857 0.2978,-0.85875 0.83513,-1.47804 0.54318,-0.61929 1.30254,-0.95822 0.7652,-0.34476 1.69401,-0.3449 0.98139,-1.4e-4 1.72917,0.3444 0.75362,0.3387 1.26193,0.95784 0.51415,0.61913 0.77715,1.4778 0.263,0.85869 0.26315,1.89849 1.4e-4,0.98723 -0.28597,1.84599 -0.28611,0.85291 -0.8176,1.48389 -0.5315,0.63097 -1.28501,0.99326 -0.75351,0.36229 -1.68817,0.36243 -0.61921,9e-5 -1.1625,-0.1634 -0.5433,-0.16348 -0.99898,-0.46719 -0.44985,-0.30369 -0.80625,-0.72423 -0.3564,-0.42638 -0.60767,-0.94625 -0.24542,-0.51987 -0.37403,-1.12153 -0.1286,-0.60167 -0.1287,-1.26177 z m 1.33189,-2e-4 q 6e-5,0.43812 0.0819,0.87039 0.0818,0.42643 0.23962,0.81779 0.16362,0.38552 0.39734,0.71846 0.23955,0.32709 0.54335,0.5724 0.30964,0.23945 0.68352,0.37959 0.37973,0.13431 0.81785,0.13424 0.46148,-6e-5 0.84117,-0.13448 0.37968,-0.14026 0.68341,-0.3798 0.30373,-0.2454 0.52566,-0.57256 0.22777,-0.333 0.37376,-0.71856 0.15182,-0.39142 0.22186,-0.81787 0.0759,-0.43229 0.0758,-0.87041 -1.1e-4,-0.70099 -0.16376,-1.32601 -0.16366,-0.63087 -0.50254,-1.10984 -0.33305,-0.47896 -0.84715,-0.75927 -0.50826,-0.28033 -1.20925,-0.28023 -0.6601,1e-4 -1.17413,0.25137 -0.51402,0.25126 -0.87029,0.70696 -0.35043,0.4557 -0.53727,1.09829 -0.18099,0.63677 -0.18088,1.41954 z"
         style="font-style:normal;font-variant:normal;font-weight:normal;font-stretch:normal;font-size:11.9636px;line-height:0.85;font-family:'Autour One';-inkscape-font-specification:'Autour One, Normal';font-variant-ligatures:normal;font-variant-caps:normal;font-variant-numeric:normal;font-variant-east-asian:normal;letter-spacing:0px;word-spacing:0px;fill:#393c2e;fill-opacity:1;stroke:none;stroke-width:0.260404"
         id="path2000" />
      <path
         d="m 145.6831,123.27669 q -2e-5,-0.18693 0.0233,-0.37386 0.0292,-0.19278 0.035,-0.39723 l -0.0244,-6.71785 q -0.0351,-0.0818 -0.0643,-0.22781 -0.0234,-0.14604 -0.0234,-0.27455 -2e-5,-0.11684 0.0409,-0.23367 0.0409,-0.11684 0.1168,-0.20447 0.0818,-0.0935 0.1986,-0.14607 0.11682,-0.0584 0.2687,-0.0584 0.25703,-4e-5 0.51407,0.0291 0.25703,0.0234 0.53743,0.0233 0.22198,-4e-5 0.44396,-0.0235 0.22782,-0.0292 0.479,-0.0293 0.82367,-1.2e-4 1.53638,0.22759 0.71271,0.22773 1.23268,0.67161 0.51996,0.43804 0.81798,1.08057 0.29802,0.64254 0.29814,1.46621 1.1e-4,0.78277 -0.19842,1.36696 -0.19853,0.57835 -0.54312,0.99315 -0.33875,0.41481 -0.8002,0.68358 -0.4556,0.26294 -0.98717,0.4149 -0.52572,0.15197 -1.09235,0.21046 -0.56662,0.0585 -1.12157,0.0586 -0.0584,0 -0.0993,0.006 -0.0409,10e-6 -0.0759,10e-6 -0.0351,1e-5 -0.0759,1e-5 -0.0351,-0.006 -0.0876,-0.006 3e-5,0.20445 4e-5,0.32713 2e-5,0.11683 3e-5,0.19277 0.006,0.0759 0.006,0.1285 1e-5,0.0526 2e-5,0.12268 3e-5,0.18693 0.0351,0.37386 0.0409,0.18692 0.041,0.39722 3e-5,0.15772 -0.0701,0.26872 -0.0701,0.10516 -0.17522,0.16944 -0.10514,0.0701 -0.22781,0.0993 -0.12267,0.035 -0.22782,0.035 -0.1402,2e-5 -0.27456,-0.0467 -0.13436,-0.0409 -0.23368,-0.12264 -0.0993,-0.0876 -0.1636,-0.20443 -0.0584,-0.12267 -0.0585,-0.28039 z m 1.35485,-2.72823 q 0.11684,0.006 0.23951,0.0117 0.12852,0.006 0.23951,0.0117 0.11099,0.006 0.19862,0.0117 0.0876,-1e-5 0.13435,-2e-5 0.64842,-9e-5 1.11573,-0.10531 0.47316,-0.10522 0.79442,-0.28636 0.32126,-0.18113 0.51984,-0.42066 0.19858,-0.24538 0.30368,-0.5258 0.10511,-0.28625 0.14012,-0.59002 0.035,-0.3096 0.035,-0.61337 -7e-5,-0.48485 -0.14032,-0.83533 -0.13441,-0.35631 -0.35643,-0.59579 -0.22202,-0.23948 -0.50828,-0.38548 -0.28041,-0.14599 -0.57835,-0.22189 -0.29209,-0.0818 -0.57249,-0.10507 -0.2804,-0.0292 -0.4907,-0.0291 -0.26871,4e-5 -0.54327,0.0118 -0.26871,0.006 -0.57831,0.0118 0.0118,0.76525 0.0177,1.34941 0.006,0.57832 0.006,1.02812 0.006,0.44397 0.006,0.77694 0.006,0.33297 0.006,0.59584 0.006,0.26287 0.006,0.47901 0.006,0.21613 0.006,0.42643 z"
         style="font-style:normal;font-variant:normal;font-weight:normal;font-stretch:normal;font-size:11.9636px;line-height:0.85;font-family:'Autour One';-inkscape-font-specification:'Autour One, Normal';font-variant-ligatures:normal;font-variant-caps:normal;font-variant-numeric:normal;font-variant-east-asian:normal;letter-spacing:0px;word-spacing:0px;fill:#393c2e;fill-opacity:1;stroke:none;stroke-width:0.260404"
         id="path2002" />
      <path
         d="m 153.87885,123.10024 q -2e-5,-0.0993 0.0233,-0.21031 0.0292,-0.11099 0.0584,-0.20445 l 0.0525,-0.18695 -0.13539,-6.98653 q -4e-5,-0.28624 0.0642,-0.44397 0.0701,-0.15774 0.17521,-0.2337 0.10514,-0.0759 0.23949,-0.0876 0.1402,-0.0117 0.2804,-0.0117 l 3.07852,-4.6e-4 q 0.10515,-0.0117 0.23366,-0.0292 0.13436,-0.0234 0.18693,-0.0234 0.22198,-3e-5 0.35634,0.0409 0.14021,0.0409 0.21616,0.12265 0.0818,0.0759 0.10518,0.19275 0.0292,0.11683 0.0293,0.27455 3e-5,0.22199 -0.0584,0.35634 -0.0525,0.13437 -0.15185,0.21033 -0.0934,0.0701 -0.22197,0.0935 -0.12851,0.0234 -0.27455,0.0234 -0.0643,10e-6 -0.1694,2e-5 -0.10515,-0.006 -0.22199,-0.0175 -0.56663,8e-5 -0.91713,1.3e-4 -0.34465,5e-5 -0.55495,0.006 -0.20446,3e-5 -0.31545,5e-5 -0.10515,2e-5 -0.18693,3e-5 l -0.54327,8e-5 2.8e-4,1.85179 q 0.0351,-1e-5 0.0818,0.006 0.0526,-1e-5 0.15772,-3e-5 0.10515,-1e-5 0.28624,-4e-5 0.18693,-3e-5 0.49653,-7e-5 0.30961,-5e-5 0.76525,-1.1e-4 0.45565,-7e-5 1.10407,-1.7e-4 0.0643,-10e-6 0.14604,-0.006 0.0818,-0.006 0.16356,-0.0175 0.10515,-0.0117 0.24534,-0.0234 0.1402,-0.0117 0.30376,-0.0117 0.15773,-3e-5 0.28041,0.0643 0.12268,0.0643 0.20448,0.16353 0.0876,0.0935 0.12855,0.20445 0.0467,0.11098 0.0468,0.21029 4e-5,0.31544 -0.21023,0.46151 -0.20444,0.14607 -0.53157,0.14612 l -3.66852,0.007 5.1e-4,3.49912 q 0.57832,-9e-5 1.16248,0.0173 0.58417,0.0174 1.2209,0.0173 0.17525,-3e-5 0.32129,-0.0175 0.14603,-0.0175 0.28039,-0.0409 0.12267,-0.0175 0.24534,-0.0292 0.12851,-0.0175 0.28039,-0.0175 0.17525,-2e-5 0.3213,0.0291 0.15188,0.0234 0.26288,0.0935 0.111,0.0643 0.17528,0.18106 0.0643,0.11098 0.0643,0.28623 4e-5,0.25703 -0.0876,0.39724 -0.0876,0.14022 -0.23948,0.21033 -0.14603,0.0643 -0.3388,0.0818 -0.18693,0.0117 -0.39138,0.0118 l -3.9314,5.7e-4 q -0.15188,3e-5 -0.2804,-0.0349 -0.12268,-0.0351 -0.21616,-0.11096 -0.0935,-0.0818 -0.14607,-0.20444 -0.0526,-0.1285 -0.0526,-0.30959 z"
         style="font-style:normal;font-variant:normal;font-weight:normal;font-stretch:normal;font-size:11.9636px;line-height:0.85;font-family:'Autour One';-inkscape-font-specification:'Autour One, Normal';font-variant-ligatures:normal;font-variant-caps:normal;font-variant-numeric:normal;font-variant-east-asian:normal;letter-spacing:0px;word-spacing:0px;fill:#393c2e;fill-opacity:1;stroke:none;stroke-width:0.260404"
         id="path2004" />
      <path
         d="m 161.62485,123.38534 q -4e-5,-0.24535 0.035,-0.41477 0.035,-0.1694 0.0409,-0.15772 0.0116,-0.63674 0.0173,-1.291 0.0116,-0.65426 0.0115,-1.38446 -7e-5,-0.46149 -1.4e-4,-0.99892 -8e-5,-0.54327 -0.0118,-1.09238 -0.006,-0.55495 -0.0235,-1.08652 -0.0176,-0.53743 -0.0469,-0.99308 -0.0234,-0.13434 -0.0351,-0.23949 -0.0117,-0.11099 -0.0117,-0.23367 -4e-5,-0.28623 0.12261,-0.44982 0.12264,-0.16943 0.39719,-0.23372 0.11682,-0.0993 0.25701,-0.13439 0.14603,-0.0409 0.28039,-0.0409 0.1402,-2e-5 0.2512,0.0818 0.11685,0.0818 0.20449,0.19274 0.0876,0.11097 0.14607,0.23365 0.0584,0.11682 0.0818,0.19275 0.18113,0.26869 0.43237,0.61331 0.25708,0.34461 0.55506,0.7418 0.30382,0.39134 0.6427,0.82357 0.33887,0.42639 0.68359,0.86446 0.35056,0.43807 0.69528,0.87614 0.34472,0.43222 0.65439,0.83524 0.30966,0.40304 0.57843,0.76517 0.26876,0.3563 0.46158,0.64251 -1.9e-4,-1.2501 -0.012,-2.14971 -0.006,-0.90545 -0.0178,-1.53633 -0.0118,-0.63673 -0.0294,-1.04565 -0.0176,-0.40891 -0.0293,-0.67762 -0.0117,-0.26871 -0.0234,-0.43811 -0.006,-0.17525 -0.006,-0.33297 -4e-5,-0.23367 0.0467,-0.37972 0.0525,-0.15189 0.14017,-0.23368 0.0934,-0.0818 0.2278,-0.11102 0.13435,-0.0292 0.3096,-0.0292 0.22782,-3e-5 0.35635,0.0934 0.12853,0.0935 0.19281,0.23947 0.0701,0.14019 0.0818,0.32128 0.0175,0.17525 0.0176,0.34465 l 9.9e-4,6.70032 q 3e-5,0.2103 0.0234,0.42643 0.0234,0.2103 0.0234,0.4498 3e-5,0.22782 -0.035,0.3797 -0.035,0.14605 -0.1168,0.23953 -0.0759,0.0935 -0.20443,0.12855 -0.12267,0.0409 -0.29792,0.0409 -0.32713,4e-5 -0.52577,-0.1635 -0.19279,-0.16353 -0.27461,-0.39719 -0.55506,-0.75933 -1.12765,-1.49528 -0.56674,-0.7418 -1.14517,-1.47775 -0.57843,-0.74181 -1.1627,-1.48944 -0.58427,-0.75348 -1.1627,-1.53033 l -0.35058,-0.54906 q 0.006,0.89376 0.0119,1.59476 0.006,0.69515 0.0119,1.24426 0.006,0.54327 0.0118,0.96386 0.006,0.41476 0.006,0.74773 0.006,0.32712 0.006,0.60167 0.006,0.26872 0.006,0.52575 0.006,0.15188 0.0176,0.32713 0.0175,0.1694 0.0176,0.33297 3e-5,0.15188 -0.0292,0.29208 -0.0233,0.14021 -0.0993,0.24536 -0.0759,0.10516 -0.21611,0.1636 -0.13435,0.0643 -0.35633,0.0644 -0.29792,5e-5 -0.5024,-0.14596 -0.20448,-0.14601 -0.20451,-0.3972 z"
         style="font-style:normal;font-variant:normal;font-weight:normal;font-stretch:normal;font-size:11.9636px;line-height:0.85;font-family:'Autour One';-inkscape-font-specification:'Autour One, Normal';font-variant-ligatures:normal;font-variant-caps:normal;font-variant-numeric:normal;font-variant-east-asian:normal;letter-spacing:0px;word-spacing:0px;fill:#393c2e;fill-opacity:1;stroke:none;stroke-width:0.260404"
         id="path2006" />
    </g>
  </g>
</svg>
